<?xml version="1.0" encoding="UTF-8" standalone="no"?><!DOCTYPE svg PUBLIC "-//W3C//DTD SVG 1.1//EN" "http://www.w3.org/Graphics/SVG/1.1/DTD/svg11.dtd"><svg width="100%" height="100%" viewBox="0 0 100 22" version="1.1" xmlns="http://www.w3.org/2000/svg" xmlns:xlink="http://www.w3.org/1999/xlink" xml:space="preserve" xmlns:serif="http://www.serif.com/" style="fill-rule:evenodd;clip-rule:evenodd;stroke-linejoin:round;stroke-miterlimit:1.41421;"><g><rect x="0" y="0" width="100" height="22" style="fill:#ffcb27;fill-rule:nonzero;"/><path d="M0,15.136l13.523,0l-0.739,1.005l-12.784,0l0,-1.005Z" style="fill:#d81f26;fill-rule:nonzero;"/><path d="M0,13.271l14.897,0l-0.74,1.004l-14.157,0l0,-1.004Z" style="fill:#d81f26;fill-rule:nonzero;"/><path d="M0,17.002l12.15,0l-0.735,0.998l-11.415,0l0,-0.998Z" style="fill:#d81f26;fill-rule:nonzero;"/><path d="M100,16.139l-13.47,0l0.737,-1.004l12.733,0l0,1.004Z" style="fill:#d81f26;fill-rule:nonzero;"/><path d="M100,17.998l-14.84,0.002l0.734,-1l14.106,0l0,0.998Z" style="fill:#d81f26;fill-rule:nonzero;"/><path d="M88.64,13.269l11.36,0l0,1.004l-12.098,0l0.738,-1.004Z" style="fill:#d81f26;fill-rule:nonzero;"/><path d="M13.098,18l6.417,-8.718c0,0 7.114,0 7.963,0c0.881,0 0.869,0.334 0.439,0.917c-0.437,0.592 -1.18,1.61 -1.625,2.211c-0.226,0.305 -0.634,0.861 0.718,0.861c1.431,0 10.669,0 10.669,0c-0.887,1.216 -3.765,4.729 -8.933,4.729c-4.188,0 -15.648,0 -15.648,0Z" style="fill:#d81f26;fill-rule:nonzero;"/><path d="M49.849,13.27l-3.479,4.73l-9.18,0c0,0 3.478,-4.729 3.481,-4.729l9.178,-0.001Z" style="fill:#d81f26;fill-rule:nonzero;"/><path d="M63.125,13.271l-3.482,4.729l-9.177,0c0,0 3.479,-4.729 3.482,-4.729l9.177,0Z" style="fill:#d81f26;fill-rule:nonzero;"/><path d="M66.109,13.271c0.001,0 -0.67,0.917 -0.996,1.357c-1.153,1.558 -0.134,3.372 3.628,3.372c4.344,0 14.738,0 14.738,0l3.481,-4.729l-20.851,0Z" style="fill:#d81f26;fill-rule:nonzero;"/><path d="M17.585,3.86l-3.195,4.341c0,0 16.564,0 17.413,0c0.88,0 0.868,0.334 0.439,0.917c-0.437,0.591 -1.168,1.621 -1.614,2.221c-0.225,0.305 -0.633,0.861 0.719,0.861c1.431,0 7.121,0 7.121,0c0,0 1.148,-1.562 2.11,-2.868c1.309,-1.776 0.113,-5.472 -4.566,-5.472c-4.188,0 -18.427,0 -18.427,0Z" style="fill:#d81f26;fill-rule:nonzero;"/><path d="M63.913,12.2l-22.453,0l6.139,-8.34l9.178,0l-3.519,4.782l4.095,0l3.523,-4.782l9.174,0l-6.137,8.34Z" style="fill:#d81f26;fill-rule:nonzero;"/><path d="M82.759,3.86l-6.138,8.34l-9.724,0c0,0 6.14,-8.34 6.144,-8.34l9.718,0Z" style="fill:#d81f26;fill-rule:nonzero;"/></g></svg>