<svg width="725" height="64" xmlns="http://www.w3.org/2000/svg">
 <g>
   <g stroke="null" transform="matrix(1.5697415506596846,0,0,1.5697415506596846,-21400.246942785827,-2712.135861506673) " id="svg_5">
    <g stroke="null" id="svg_6">
     <g stroke="null" id="svg_7">
      <polygon stroke="null" id="svg_8" fill="#d40511" points="13894.997268795967,1754.5836181640625 13921.503128170967,1754.5836181640625 13920.054885983467,1756.5546875 13894.997268795967,1756.5546875 13894.997268795967,1754.5836181640625 13894.997268795967,1754.5836181640625 "/>
      <polygon stroke="null" id="svg_9" fill="#d40511" points="13894.997268795967,1750.9285888671875 13924.196487545967,1750.9285888671875 13922.745315670967,1752.8956298828125 13894.997268795967,1752.8956298828125 13894.997268795967,1750.9285888671875 13894.997268795967,1750.9285888671875 "/>
      <polygon stroke="null" id="svg_10" fill="#d40511" points="13894.997268795967,1758.24267578125 13918.812698483467,1758.24267578125 13917.370315670967,1760.1995849609375 13894.997268795967,1760.1995849609375 13894.997268795967,1758.24267578125 13894.997268795967,1758.24267578125 "/>
     </g>
     <g stroke="null" id="svg_11">
      <polygon stroke="null" id="svg_12" fill="#d40511" points="14090.997268795967,1756.5546875 14064.594925045967,1756.5546875 14066.042190670967,1754.585693359375 14090.997268795967,1754.585693359375 14090.997268795967,1756.5546875 14090.997268795967,1756.5546875 "/>
      <polygon stroke="null" id="svg_13" fill="#d40511" points="14090.997268795967,1760.1995849609375 14061.910354733467,1760.20166015625 14063.350784420967,1758.24267578125 14090.997268795967,1758.24267578125 14090.997268795967,1760.1995849609375 14090.997268795967,1760.1995849609375 "/>
      <polygon stroke="null" id="svg_14" fill="#d40511" points="14068.732620358467,1750.9285888671875 14090.997268795967,1750.9285888671875 14090.997268795967,1752.8975830078125 14067.284378170967,1752.898681640625 14068.732620358467,1750.9285888671875 14068.732620358467,1750.9285888671875 "/>
     </g>
    </g>
    <g stroke="null" id="svg_15">
     <path stroke="null" id="svg_16" fill="#d40511" d="m13920.6714,1760.19926l12.5779,-17.0888l15.6082,0c1.7252,0 1.7026,0.655 0.86,1.7975c-0.8562,1.16 -2.3133,3.1547 -3.1854,4.3323c-0.4426,0.5982 -1.2431,1.6881 1.4089,1.6881l20.91,0c-1.739,2.3822 -7.38,9.2709 -17.5082,9.2709l-30.6714,0z"/>
     <path stroke="null" id="svg_17" fill="#d40511" d="m13992.7044,1750.92696l-6.82,9.2723l-17.9926,0s6.8172,-9.2709 6.8233,-9.2709l17.9893,-0.0014z"/>
     <path stroke="null" id="svg_18" fill="#d40511" d="m14018.7227,1750.92836l-6.8239,9.2709l-17.9857,0s6.8178,-9.2709 6.8239,-9.2709l17.9857,0z"/>
     <path stroke="null" id="svg_19" fill="#d40511" d="m14024.5737,1750.92836c0.0006,0 -1.3141,1.7974 -1.9529,2.66c-2.2593,3.0534 -0.2626,6.61 7.111,6.61l28.8853,0l6.8226,-9.2709l-40.866,0.0009z"/>
    </g>
    <g stroke="null" id="svg_20">
     <path stroke="null" id="svg_21" fill="#d40511" d="m13929.4673,1732.48366l-6.2621,8.5079l34.1289,0c1.7249,0 1.7023,0.655 0.8592,1.7975c-0.8562,1.1587 -2.2894,3.1763 -3.1614,4.3539c-0.4427,0.5969 -1.2432,1.6867 1.4089,1.6867l13.9564,0s2.25,-3.0615 4.1352,-5.6206c2.5655,-3.4815 0.2225,-10.7254 -8.9486,-10.7254l-36.1165,0z"/>
     <polygon stroke="null" id="svg_22" fill="#d40511" points="14020.265823483467,1748.82958984375 13976.258987545967,1748.82958984375 13988.293167233467,1732.483642578125 14006.279495358467,1732.483642578125 13999.383010983467,1741.8555908203125 14007.411331295967,1741.8555908203125 14014.312698483467,1732.483642578125 14032.296096920967,1732.483642578125 14020.265823483467,1748.82958984375 14020.265823483467,1748.82958984375 "/>
     <path stroke="null" id="svg_23" fill="#d40511" d="m14057.2072,1732.48366l-12.0314,16.346l-19.0593,0s12.0355,-16.346 12.0415,-16.346l19.0492,0z"/>
    </g>
   </g>
  </g>
  <g stroke="null" id="svg_30">
   <path stroke="null" id="svg_29" d="m308.83938,50.70791l10.02157,0l-10.12027,10.20614l-10.02161,0l10.1203,-10.20614zm-13.51795,0l-10.11966,10.20614l10.02161,0l10.12016,-10.20614l-10.02211,0zm25.86444,0l10.1203,10.20614l10.02211,0l-10.12027,-10.20614l-10.02215,0zm13.51795,0l10.12023,10.20614l10.02154,0l-10.12023,-10.20614l-10.02154,0zm-15.44068,-1.97895c-26.26785,-0.0092 -36.42207,-22.84615 -35.05567,-40.15283l7.71509,-2.45391c-1.25532,9.84703 1.79506,16.95111 3.89671,20.20598c-2.50262,-13.93124 8.01243,-25.20935 21.17624,-25.21856c11.83948,-0.00802 21.6328,8.63855 21.58653,21.04367c1.73583,-4.73479 2.94488,-11.94312 3.19535,-16.98875l17.77735,4.42477c-1.42127,20.86877 -17.07291,39.147 -40.2916,39.13963zm11.9973,-26.13768c0,-7.85823 -6.36967,-14.22855 -14.22847,-14.22855c-7.8583,0 -14.22858,6.37035 -14.22858,14.22855c0,7.85912 6.37028,14.22915 14.22858,14.22915c7.8588,0 14.22847,-6.37003 14.22847,-14.22915zm-69.57571,-0.31417l-5.54792,1.74973l0,4.82242l-3.32878,0l0,4.65171l3.2434,0l0,9.30345c0,2.8738 0.58297,4.95044 1.74976,6.23072c1.1659,1.28028 3.14349,1.9204 5.93195,1.9204c0.5685,0 1.07379,-0.0145 1.51506,-0.04265c0.4404,-0.02904 0.84589,-0.07169 1.21625,-0.12802l0,-4.60906c-0.22783,0.02904 -0.47711,0.05035 -0.7468,0.06399c-0.27052,0.01454 -0.5198,0.02134 -0.74687,0.02134c-0.5411,0 -1.01736,-0.04949 -1.42961,-0.14937c-0.41315,-0.09902 -0.7545,-0.29107 -1.02427,-0.57616c-0.27052,-0.28423 -0.46945,-0.66834 -0.59747,-1.15226c-0.12799,-0.48309 -0.19205,-1.09503 -0.19205,-1.8351l0,-9.04726l4.73708,0l0,-4.65171l-4.7797,0l0,-6.57218l-0.00004,0zm-179.4458,0l-5.54792,1.74973l0,4.82242l-3.32874,0l0,4.65171l3.24344,0l0,9.30345c0,2.8738 0.58293,4.95044 1.74969,6.23072c1.1659,1.28028 3.14356,1.9204 5.93203,1.9204c0.56843,0 1.07376,-0.0145 1.51502,-0.04265c0.4404,-0.02904 0.84582,-0.07169 1.21625,-0.12802l0,-4.60906c-0.2279,0.02904 -0.47711,0.05035 -0.74684,0.06399c-0.27059,0.01454 -0.5198,0.02134 -0.74684,0.02134c-0.54114,0 -1.01739,-0.04949 -1.42965,-0.14937c-0.41312,-0.09902 -0.7545,-0.29107 -1.02423,-0.57616c-0.27059,-0.28423 -0.46945,-0.66834 -0.59747,-1.15226c-0.12802,-0.48309 -0.19205,-1.09503 -0.19205,-1.8351l0,-9.04726l4.73705,0l0,-4.65171l-4.77977,0l0,-6.57218l0.00004,0zm38.91262,23.89878c-1.56537,0 -2.78846,-0.5121 -3.67016,-1.53636c-0.88253,-1.0242 -1.32293,-2.43254 -1.32293,-4.22491l0,-1.45103c0,-1.79241 0.4336,-3.20072 1.30162,-4.22499c0.8672,-1.0242 2.06981,-1.53633 3.60613,-1.53633c1.50732,0 2.84483,0.58383 4.01159,1.74973l2.85926,-3.62751c-0.93886,-0.96704 -2.06293,-1.70704 -3.37143,-2.21914c-1.30929,-0.51213 -2.68858,-0.76822 -4.13961,-0.76822c-1.50815,0 -2.88064,0.25608 -4.11823,0.76822c-1.23763,0.51206 -2.29771,1.22395 -3.17937,2.1338c-0.88253,0.91067 -1.55771,2.01344 -2.02712,3.30743c-0.46945,1.29478 -0.70415,2.72447 -0.70415,4.28898l0,1.70704c0,1.59355 0.24155,3.03771 0.7255,4.33159c0.48309,1.29482 1.1591,2.39758 2.02712,3.30743c0.86716,0.91071 1.92724,1.6149 3.17937,2.11249c1.25124,0.49763 2.6459,0.74684 4.18226,0.74684c3.07269,0 5.63333,-0.99519 7.68175,-2.98732l-2.81664,-3.62751c-1.30929,1.16679 -2.71759,1.74976 -4.22495,1.74976zm-19.46039,-8.53527l-2.51791,-0.55482c-1.67886,-0.36953 -2.51791,-1.10953 -2.51791,-2.21914c0,-0.65384 0.29107,-1.1659 0.87486,-1.53636c0.58297,-0.36957 1.40068,-0.55478 2.45391,-0.55478c2.01942,0 3.82637,0.59747 5.41986,1.79241l2.21921,-3.67016c-2.30455,-1.70704 -5.03585,-2.5606 -8.19389,-2.5606c-2.67498,0 -4.76613,0.59751 -6.27345,1.79245c-1.50815,1.19491 -2.26186,2.83111 -2.26186,4.90776c0,1.70704 0.50443,3.12992 1.51502,4.26764c1.00973,1.13861 2.4966,1.9204 4.45969,2.3472l2.51791,0.55478c0.85352,0.17068 1.4723,0.42676 1.85641,0.76818c0.38411,0.34139 0.57613,0.79719 0.57613,1.36562c0,1.50818 -1.20945,2.26186 -3.62748,2.26186c-2.19099,0 -4.19673,-0.69649 -6.01733,-2.09111l-2.30451,3.62748c1.19494,0.99605 2.46075,1.72838 3.79823,2.19783c1.33661,0.46938 2.87298,0.70412 4.60899,0.70412c2.95835,0 5.2629,-0.60424 6.91361,-1.81372c1.64989,-1.20859 2.47519,-2.90882 2.47519,-5.09985c0,-3.47041 -1.99213,-5.63325 -5.97468,-6.48677zm143.00837,0l-2.56056,-0.55482c-1.65067,-0.36953 -2.47519,-1.10953 -2.47519,-2.21914c0,-0.65384 0.29104,-1.1659 0.87483,-1.53636c0.58304,-0.36957 1.40064,-0.55478 2.45388,-0.55478c1.99131,0 3.79823,0.59747 5.41996,1.79241l2.17649,-3.67016c-2.30451,-1.70704 -5.02221,-2.5606 -8.1512,-2.5606c-2.67498,0 -4.77293,0.59751 -6.29472,1.79245c-1.52272,1.19491 -2.28324,2.83111 -2.28324,4.90776c0,1.70704 0.51213,3.12992 1.53636,4.26764c1.02416,1.13861 2.51787,1.9204 4.48103,2.3472l2.47515,0.55478c1.64989,0.34139 2.47526,1.05324 2.47526,2.1338c0,1.50818 -1.22395,2.26186 -3.67016,2.26186c-1.08146,0 -2.12016,-0.17071 -3.11538,-0.5121c-0.99605,-0.34139 -1.94944,-0.86716 -2.8593,-1.57902l-2.3472,3.62748c1.19491,0.99605 2.46752,1.72838 3.8195,2.19783c1.35115,0.46938 2.88067,0.70412 4.58772,0.70412c2.98736,0 5.29871,-0.60424 6.93488,-1.81372c1.63538,-1.20859 2.45388,-2.90882 2.45388,-5.09985c0.00004,-3.44223 -1.97759,-5.60421 -5.93199,-6.48677zm-180.70288,6.14539c-0.39861,0.65466 -0.92525,1.20261 -1.57905,1.64305c-0.65466,0.4413 -1.43735,0.66147 -2.34716,0.66147c-1.16679,0 -2.02712,-0.35507 -2.5819,-1.06692c-0.55478,-0.71103 -0.83221,-1.73519 -0.83221,-3.07269l0,-13.10161l-5.67594,0l0,13.52837c0,2.76035 0.57616,4.87965 1.72842,6.35882c1.15226,1.48 2.79527,2.21914 4.92914,2.21914c1.59266,0 2.94467,-0.39174 4.05424,-1.17356s1.99127,-1.81372 2.6459,-3.09404l0,3.84084l5.33455,0l0,-21.67957l-5.67598,0l0,14.93671zm-19.14218,-12.6322c1.63535,1.87772 2.45388,4.46735 2.45388,7.76713l0,2.51787l-13.65643,0c0.14163,1.67889 0.66831,2.93103 1.57902,3.7555c0.90981,0.82541 2.17649,1.23763 3.79819,1.23763c1.05241,0 1.99815,-0.14933 2.83799,-0.44807c0.83902,-0.29877 1.67123,-0.74684 2.49657,-1.34435l2.38988,3.58486c-1.08139,0.88253 -2.29771,1.57218 -3.64882,2.06977c-1.35197,0.49763 -2.85249,0.74684 -4.50238,0.74684c-1.6217,0 -3.08039,-0.24237 -4.37432,-0.72546c-1.29478,-0.48309 -2.40439,-1.17363 -3.32874,-2.06981c-0.92525,-0.89617 -1.62937,-1.99811 -2.11249,-3.30743c-0.48391,-1.30843 -0.7255,-2.77396 -0.7255,-4.39566l0,-1.70704c0,-1.6217 0.22704,-3.07953 0.68284,-4.37432c0.45494,-1.29396 1.10957,-2.39669 1.96312,-3.30743c0.85352,-0.90989 1.88459,-1.6072 3.09404,-2.09115c1.20859,-0.48309 2.5674,-0.7255 4.07558,-0.7255c3.01547,-0.00007 5.34136,0.93886 6.97756,2.81661zm-3.0087,6.65749c-0.08537,-1.53633 -0.45584,-2.73811 -1.1096,-3.60613c-0.65466,-0.8672 -1.65067,-1.30162 -2.98736,-1.30162c-1.33743,0 -2.34032,0.43442 -3.00866,1.30162c-0.66913,0.86806 -1.03189,2.06981 -1.08823,3.60613l8.19385,0zm128.36223,-6.65749c1.63535,1.87772 2.45391,4.46735 2.45391,7.76713l0,2.51787l-13.65646,0c0.14163,1.67889 0.66831,2.93103 1.57902,3.7555c0.90981,0.82541 2.17649,1.23763 3.79823,1.23763c1.05238,0 1.99811,-0.14933 2.83795,-0.44807c0.83902,-0.29877 1.67119,-0.74684 2.49657,-1.34435l2.38988,3.58486c-1.08146,0.88253 -2.29771,1.57218 -3.64886,2.06977c-1.35197,0.49763 -2.85246,0.74684 -4.50231,0.74684c-1.6217,0 -3.08039,-0.24237 -4.37432,-0.72546c-1.29478,-0.48309 -2.40439,-1.17363 -3.32874,-2.06981c-0.92521,-0.89617 -1.6294,-1.99811 -2.11249,-3.30743c-0.48399,-1.30843 -0.7255,-2.77396 -0.7255,-4.39566l0,-1.70704c0,-1.6217 0.22701,-3.07953 0.68288,-4.37432c0.45491,-1.29396 1.10953,-2.39669 1.96309,-3.30743c0.85356,-0.90989 1.88459,-1.6072 3.09404,-2.09115c1.20855,-0.48309 2.5674,-0.7255 4.07558,-0.7255c3.01547,-0.00007 5.34132,0.93886 6.97753,2.81661zm-3.0087,6.65749c-0.08534,-1.53633 -0.45573,-2.73811 -1.10953,-3.60613c-0.6547,-0.8672 -1.65075,-1.30162 -2.98736,-1.30162c-1.33751,0 -2.33355,0.43442 -2.98736,1.30162c-0.6547,0.86806 -1.02427,2.06981 -1.10957,3.60613l8.19381,0zm-24.28285,-9.38879c-1.53633,0 -2.83111,0.35596 -3.88353,1.06695c-1.0532,0.71182 -1.92044,1.66439 -2.60325,2.85933l0,-11.69334l-5.6759,0l0,29.87342l5.67594,0l0,-14.89406c0.39772,-0.6538 0.93886,-1.21629 1.6217,-1.6857c0.68284,-0.46945 1.50729,-0.70419 2.47526,-0.70419c1.19494,0 2.06977,0.36277 2.62459,1.08826c0.55475,0.72546 0.83214,1.75739 0.83214,3.09404l0,13.10164l5.67598,0l0,-13.52837c0,-2.78764 -0.58383,-4.9146 -1.74973,-6.38013c-1.16679,-1.46464 -2.83122,-2.19787 -4.9932,-2.19787zm87.0811,6.03874c0.46945,1.29478 0.70415,2.75265 0.70415,4.37432l0,1.70704c0,1.6217 -0.23474,3.08039 -0.70415,4.37432c-0.46945,1.29478 -1.14542,2.39755 -2.02712,3.30743c-0.88256,0.91067 -1.96309,1.60806 -3.24337,2.09111c-1.28032,0.48309 -2.71766,0.72546 -4.31036,0.72546c-1.59355,0 -3.03001,-0.24237 -4.31029,-0.72546c-1.28032,-0.48309 -2.3617,-1.18044 -3.24337,-2.09111c-0.88256,-0.90989 -1.55771,-2.01262 -2.02712,-3.30743c-0.46945,-1.29396 -0.70419,-2.75265 -0.70419,-4.37432l0,-1.70704c0,-1.6217 0.23474,-3.07953 0.70419,-4.37432c0.46945,-1.29396 1.14459,-2.39669 2.02712,-3.30743c0.88167,-0.90989 1.96309,-1.6072 3.24337,-2.09115c1.28028,-0.48309 2.71673,-0.7255 4.31029,-0.7255c1.5927,0 3.03004,0.24244 4.31036,0.7255c1.28028,0.48395 2.36084,1.1813 3.24337,2.09115c0.8817,0.91071 1.55771,2.01348 2.02712,3.30743zm-4.97179,4.50231c0,-1.96309 -0.40542,-3.42776 -1.21625,-4.39566c-0.81087,-0.96704 -1.94182,-1.45103 -3.39281,-1.45103c-1.45092,0 -2.58187,0.48395 -3.39277,1.45103c-0.81087,0.9679 -1.21625,2.43257 -1.21625,4.39566l0,1.45103c0,1.96309 0.40538,3.42862 1.21625,4.39566c0.81087,0.96794 1.94182,1.45103 3.39277,1.45103c1.45103,0 2.58198,-0.48309 3.39281,-1.45103c0.81083,-0.96701 1.21625,-2.43257 1.21625,-4.39566l0,-1.45103zm-17.53999,-11.43722c0.5121,1.08142 0.76815,2.30451 0.76815,3.67016l0,0.85352c0,1.36565 -0.24921,2.59644 -0.7468,3.69154c-0.49845,1.09589 -1.21625,2.02031 -2.15514,2.77396c-0.93889,0.7545 -2.07751,1.33747 -3.41408,1.74973c-1.33751,0.41312 -2.84572,0.61878 -4.52368,0.61878l-4.6944,0l0,9.64484l-5.93203,0l0,-28.16638l10.62642,0c1.64985,0 3.14353,0.20652 4.481,0.61878c1.33661,0.41315 2.47522,1.00296 3.41412,1.77111c0.93882,0.76818 1.66432,1.6934 2.17645,2.77396zm-5.16381,3.79815c0,-1.33658 -0.41996,-2.35404 -1.25897,-3.05135c-0.83988,-0.69649 -2.05613,-1.04554 -3.64879,-1.04554l-4.6944,0l0,8.79129l4.6944,0c1.59266,0 2.80895,-0.34823 3.64879,-1.04554c0.83905,-0.69649 1.25897,-1.71388 1.25897,-3.05135l0,-0.59751zm-180.99037,-5.61191c2.24736,2.23371 3.37147,5.42759 3.37147,9.58085l0,2.30451c0,4.15412 -1.12411,7.34799 -3.37147,9.58085c-2.24822,2.23368 -5.46254,3.35009 -9.64484,3.35009l-10.24231,0l0,-28.16638l10.24231,0c4.1823,0 7.39662,1.1173 9.64484,3.35009zm-2.56056,9.8369c0,-5.40539 -2.3617,-8.10851 -7.08428,-8.10851l-4.31032,0l0,18.0094l4.31032,0c4.72258,0 7.08428,-2.7023 7.08428,-8.10851l0,-1.79238z"/>
  </g>
</svg>
